<?xml version="1.0" encoding="UTF-8"?>
<svg id="Layer_1" data-name="Layer 1" xmlns="http://www.w3.org/2000/svg" xmlns:xlink="http://www.w3.org/1999/xlink" viewBox="0 0 661.7 629.05">
  <defs>
    <style>
      .cls-1 {
        fill: url(#linear-gradient-2);
      }

      .cls-2 {
        fill: aqua;
      }

      .cls-3 {
        fill: url(#New_Gradient_Swatch_1-3);
      }

      .cls-4 {
        fill: #c1272d;
      }

      .cls-5 {
        fill: #3470c6;
      }

      .cls-6 {
        fill: url(#New_Gradient_Swatch_1);
      }

      .cls-7 {
        fill: url(#New_Gradient_Swatch_1-2);
      }

      .cls-8 {
        fill: url(#linear-gradient);
      }
    </style>
    <linearGradient id="New_Gradient_Swatch_1" data-name="New Gradient Swatch 1" x1="409.44" y1="271.41" x2="307.38" y2="169.36" gradientUnits="userSpaceOnUse">
      <stop offset="0" stop-color="#fff"/>
      <stop offset="0" stop-color="#0275d3"/>
      <stop offset=".01" stop-color="#2f4f94"/>
      <stop offset="1" stop-color="#c1272d"/>
      <stop offset="1" stop-color="#333472"/>
      <stop offset="1" stop-color="#35316e"/>
      <stop offset="1" stop-color="#35316e"/>
      <stop offset="1" stop-color="#333472"/>
    </linearGradient>
    <linearGradient id="New_Gradient_Swatch_1-2" data-name="New Gradient Swatch 1" x1="365.85" y1="285.9" x2="481.24" y2="285.9" xlink:href="#New_Gradient_Swatch_1"/>
    <linearGradient id="New_Gradient_Swatch_1-3" data-name="New Gradient Swatch 1" x1="341.24" y1="362" x2="506.32" y2="362" xlink:href="#New_Gradient_Swatch_1"/>
    <linearGradient id="linear-gradient" x1="0" y1="313.48" x2="509.79" y2="313.48" gradientUnits="userSpaceOnUse">
      <stop offset="0" stop-color="#fff"/>
      <stop offset="0" stop-color="#0275d3"/>
      <stop offset=".76" stop-color="#333472"/>
      <stop offset=".89" stop-color="#35316e"/>
      <stop offset=".94" stop-color="#35316e"/>
    </linearGradient>
    <linearGradient id="linear-gradient-2" x1="3.19" y1="295.64" x2="263.04" y2="295.64" gradientUnits="userSpaceOnUse">
      <stop offset="0" stop-color="#fff"/>
      <stop offset="0" stop-color="#0184d6"/>
      <stop offset=".73" stop-color="#35316e"/>
    </linearGradient>
  </defs>
  <g id="pirka">
    <path class="cls-6" d="M385.34,94.38c9.79,21.06,17.29,43.32,21.6,66.42,2.11,11.55,3.42,23.3,3.69,35.12,.17,5.91-.04,11.84-.42,17.76l-.39,4.44c-.13,1.48-.25,2.96-.48,4.43l-.61,4.42c-.2,1.47-.4,2.95-.7,4.41-4.11,23.44-13.68,46.14-28.19,64.96-7.24,9.41-15.52,17.94-24.61,25.38-9.15,7.37-18.92,13.86-29.27,19.15,9.15-7.16,17.97-14.6,25.96-22.78,8.01-8.16,15.24-16.96,21.52-26.33,12.61-18.74,20.82-40.03,24.74-62.14,3.96-22.15,3.66-45.01,1.01-67.65l-1.1-8.5-1.37-8.48c-.4-2.84-1.03-5.64-1.55-8.46-.54-2.82-1.04-5.65-1.69-8.45l-1.82-8.45c-.67-2.8-1.41-5.59-2.05-8.41l-1-4.22-1.13-4.19c-.71-2.81-1.46-5.61-2.14-8.44Z"/>
    <path class="cls-7" d="M476.25,203.01c.86,17.35-.99,34.98-5.65,51.98-4.62,17-11.98,33.38-21.77,48.16-9.77,14.8-21.91,27.96-35.58,39.03-13.67,11.07-28.88,20.08-44.99,26.6,14.09-10.16,27.61-20.68,39.8-32.5,12.22-11.75,23.18-24.64,32.44-38.65,9.28-14,16.82-29.12,22.64-45.02,5.93-15.88,9.84-32.54,13.12-49.61Z"/>
    <path class="cls-3" d="M342.67,423.88c15.95-6.95,31.53-14.17,46.56-22.31,15.02-8.13,29.47-17.13,43.09-27.21,13.62-10.08,26.35-21.31,37.97-33.69,11.7-12.34,21.96-26.03,31.55-40.55-5.85,16.39-14.64,31.88-25.58,45.67-10.92,13.83-23.8,26.14-37.98,36.6-14.17,10.48-29.56,19.23-45.62,26.23-16.08,6.94-32.83,12.27-49.98,15.26Z"/>
  </g>
  <g id="kon">
    <path class="cls-8" d="M508.89,334.97l-.07,.08c-2.52,3.16-5.39,6.63-8.62,10.34l8.62-10.34c-2.96,3-93.32,94.06-197.48,104.21-.03,0-.06,.01-.09,.01-4.96,.48-9.95,.78-14.97,.87-1.72,.04-3.45,.05-5.18,.03-.79,0-1.59-.01-2.38-.03,1.07-.38,2.14-.77,3.2-1.17,.95-.35,1.88-.7,2.82-1.07h.01s.01,0,.01-.01c0,0,.02-.01,.05-.02,.02-.01,.04-.02,.06-.02,.03-.01,.08-.03,.14-.06-.21,0-.46-.01-.04-.01,.02-.01,.04-.01,.06-.02l-.02-.03h.1c.08-.03,.13-.05,.16-.05-.03,.01-.06,.03-.11,.05h.03c14.76-5.67,29.14-12.4,43.26-19.22,.34-.16,.68-.33,1.02-.5,.01,0,.03,0,.04,0,13.56-6.58,31.91-15.04,44.78-22.14,11.48-6.18,23.41-13.49,33.32-22.43,41.75-36.61,70.19-89.76,83.55-143.18-16.93,35.39-41.29,75.67-71.8,106.43-7.05,8.05-15,14.9-22.62,20.51,9.28-6.72,18.12-14.45,26.49-22.9-11.64,13.3-25.75,23.31-36.76,29.91-5.03,3.19-9.6,5.74-13.26,7.65-.17,.09-.33,.18-.49,.25-.57,.3-1.11,.58-1.63,.84-2.29,1.15-4.1,2-5.26,2.52-.17,.08-.32,.15-.46,.21-.28,.13-.51,.23-.68,.3-.24,.11-.37,.16-.37,.16l-51.42,22.28s-53.49,16.86-66.25,14.35c0,0,0,.01,0,.01h0s0-.01,0-.01c14.78-5.64,29.64-11.2,44.28-16.56,7.62-2.86,18.33-6.38,25.71-9.74l48.84-30.37s.04-.03,.06-.05c22.03-17.84,41.02-39.72,54.55-63.72,26.77-49.44,30.37-109.78,14.25-163.2l-1.53,.2c-.23,4.56-.28,9.06-.48,13.56-.52,13.31-1.43,26.72-3.04,39.86-4.28,33.82-13.15,67.97-30.23,97.6-1.41,2.35-2.87,4.68-4.37,6.98h-.01s-56.15,79.57-148.78,95.65t-.02,.01h0s.01-.01,.02-.01c6.91-4.44,13.56-8.81,19.19-12.79,7.18-5,17.32-12.69,24.39-17.88,21.62-15.99,44.09-33.14,59.06-55.94,0,0,0-.01,.01-.01,2.61-3.98,5-8.13,7.11-12.49,14.4-28.78,21.54-61.47,19.72-93.63-3.36-49.92-25.32-98.09-59.78-134.04-.04-.01-.09-.01-.13-.02-8.36-8.6-17.44-16.48-27.15-23.51l-1.31,1.35c1.45,2.06,2.9,4.13,4.39,6.14,3.4,4.83,6.78,9.68,10.05,14.58-.07-.01-.14-.01-.21-.02,.64,.95,1.27,1.9,1.89,2.85,15.74,24.38,29.94,50.47,38.4,78,14.17,44.9,12.11,93.92-10.54,135.44-13.55,24.93-35.98,40.42-58.68,58.84-10.97,8.54-22.06,17.37-33.42,25.92-6.74,3.35-13.85,5.95-21.26,7.1-1.35,.21-2.68,.36-4.02,.45-4.54-.6-12.55-2.7-15.93-5.96-2.45-2.35-4.36-4.33-6.01-6.3-.27-.25-.5-.53-.69-.85-.05-.05-.1-.11-.14-.17-1.14-1.42-2.16-2.89-3.18-4.53-.2-.26-.39-.52-.58-.79-1.13-1.67-2.12-3.19-3.16-4.64-.08-.12-.16-.24-.23-.37-.22-.27-.44-.51-.64-.69-2.72-2.49-6.64-5.56-11.83-8.24-5.1-2.64-9.79-4.06-13.35-4.85-.82-.17-1.69-.34-2.58-.48-.84-.14-1.65-.26-2.43-.35-1.54-.29-3.21-.52-5-.68-.87-.08-1.71-.13-2.52-.16l-2.29-.03c.45-.77,.82-1.59,1.19-2.43,2.98-6.56,2.47-14.57,2.47-14.57-.77-15.67-9.43-28.26-28.21-32.69-8.61-2.54-15.24-2.31-23.3-2.02-6.44,.23-16.13,.66-20.18,5.05-1.96,2.11-2.7,5.28-4.8,8.57-.06,.09-.23,.32-.14,.52,.42,.9,5.73-1,9.78-1.85,5.37-1.13,9.37-.57,16.79,.46,7.55,1.07,11.52,1.61,16.11,4.34,3.16,1.87,8.26,4.9,9.46,10.33,1.28,5.81-2.65,10.98-5.39,14.59-5.17,6.8-11.64,10.13-18.51,13.59-9.62,4.83-11.69,3.8-17.23,7.95-5.45,4.06-8.24,8.62-11.36,13.8-8.43,13.96-4.53,17.56-12.01,29.36-5.67,8.92-10.78,11.44-10.03,17.37,.51,3.9,3.4,7.93,7.18,8.98,1.87,.53,5.38,.7,12.63-5.2,9.07-7.37,10.32-13.11,20.32-26.82,6.29-8.59,5.56-6.01,13.13-16.14,9.17-12.29,10.93-17.01,16.19-17.84,2.23-.36,4.51,.07,6.64,1,.05-.03,.11-.05,.16-.06,4.86,1.71,10.09,3.46,15.17,5.56h.02c1.42,.58,2.83,1.2,4.2,1.86,6.84,3.23,13.06,7.32,17.21,13.17,6.17,5.32,9.96,12.14,11.4,20.51,1.96,11.47,.17,22.79-5.39,33.97-12.6,25.01-39.71,34.81-68.37,34.83l-58.34-.31c-1.12-.02-2.13-.22-2.98-.56-.41,.05-.84,.08-1.29,.07-7.45-.3-14.69-2.18-22.14-2.47-1.46-.05-2.74-.44-3.81-1.05L1.99,573.97c-.06,.47-.88,13.16-1.99,20.23,8.32,.43,15.66-.63,23.98,.02,1.1-7.39,2.82-19,2.88-19.4l13.09-94.42c.2-1.51,1.5-2.64,3.03-2.64l85.46-4.81,9.7-.7,33.1-2.41,23.33-1.68c4.41-.42,7.97-.76,10.05-.73,11.84,.16,23-.38,34.92-1.09,1.87-.1,5.23-.5,7.07-.67l10.61-.66,24.76-1.36,21.59-1.46c19.32-2.07,18.73-2.86,37.9-6.01,19.46-3.41,19.62-3.04,56.77-18.24,47.13-19.28,84-59.98,111.55-102.33l-.9-.63ZM132.87,464.92l.44-.13c-.12,.09-.26,.13-.44,.13Zm116.39-.35l9.71-1.35c-3.2,.59-6.44,1.02-9.71,1.35Z"/>
    <path class="cls-1" d="M257.28,264.78c-3.37-4.66-8.14-9.97-15.71-15.58-4.38-3.24-11.03-8.17-20.72-11.62-15.94-5.68-29.19-3.49-29.53-6.29-.18-1.5,3.47-3.21,5.65-3.97,12.4-4.35,26.1,4.76,26.9,3.17,.26-.52-1.2-1.92-4.11-4.72-7.01-9.59-44.7-13.64-45.52-13.84-25.57-3.1-22.97-4.74-28.83-3.76-8.88,1.49-17.59,5.72-29.88,5.21-2.74-.11-7.09-.52-10.31-3.58-2.52-2.4-2.18-4.38-4.02-7.56-3.22-5.59-9.03-7.76-16.22-10.45-6.41-2.4-11.55-2.93-16.69-3.42-7.12-.68-16.9-.74-17.22,1.06-.27,1.54,6.7,2.02,11.05,8.03,2.78,3.84,4.61,10.12,2.23,12.72-2.74,2.99-8.86-1.27-21.78-2.65-11.33-1.21-22.05,.41-22.29,2.47-.24,2.07,10.4,2.21,18.79,11.03,2.41,2.53,7.59,7.98,6.73,13.88-1.08,7.36-10.36,7.31-19.36,17.72-6.28,7.27-8.4,14.99-10.31,21.97-.72,2.63-1.76,7-2.47,29.44-.48,15.41-.73,23.11-.55,29.39,.38,13.64,1.39,16.85-.69,23.64-1.62,5.27-4.39,10.36-7.89,16.8-.21,.39-.41,.75-.61,1.11-.1,.48-.26,.94-.48,1.36-.05,.38-.13,.76-.26,1.12,.39,3.11,.49,6.26,.25,9.39,.04,.19,.08,.38,.1,.58,1.84,4.74,5.01,9.13,8.52,12.49,3.26,.78,7.58,1.15,16.16,2.09,13.85,1.51,16.68,2.07,17.89,.2,1.69-2.62-.9-8.26-4.74-10.74-1.61-1.04-2.81-1.11-7.07-1.74-9.04-1.33-13.57-2.03-14.13-3.48-.88-2.25,3.49-4.67,8.03-11.05,3.78-5.33,5.34-10.13,6.67-14.21,2.61-8.02,2.16-14.27,.49-31.94-2.37-25.01-2.37-21.98-2.56-26.12-.91-19.93-1.46-31.77,6.03-40.38,3.76-4.32,6.06-3.84,13.76-11.83,6.52-6.78,9.92-10.31,9.85-14.93-.13-9.2-13.88-15.45-12.57-17.57,.62-1.59,12.44,1.87,15.4,2.81,8.96,2.91,10.65,4.57,12.22,3.53,1.4-.93,.79-2.73,1.68-9.62,.72-5.55,1.08-8.32,2.33-9,3.47-1.88,13.81,4.87,15.66,13.66,.89,4.23-.47,7.55,1.5,8.9,2.21,1.52,6.29-1.05,8.25-2.12,8.22-4.48,13.72-1.48,38.31-.31,17.91,.85,29.18-.06,29.42,1.83,.24,1.89-10.87,3.78-10.69,6.65,.11,1.81,4.68,2.97,13.53,4.77,18.33,3.73,18.92,2.86,24.38,4.51,15.02,4.54,25.56,15.71,24.69,17.27-.21,.38-1.02,.04-4.52-.02-2.32-.04-3.87,.08-6.96,.31-1.26,.09-17.73,1.37-17.79,3.63-.02,.64,1.27,1.09,2.49,1.61,1.49,.62,5.35,3.37,13.09,8.86,11.35,8.06,17.03,12.09,20.88,18,9.74,14.58,6.49,30.51,2.24,38.9-4.64,10.01-11.16,14.3-9.82,16.21,1.25,1.77,7.83-.56,12.06-2.85,1.38-.75,8.3-4.63,13.71-13.75,12.43-20,5.77-41.84-14.14-55.21-6.25-4.31-10.68-5.59-10.38-6.77,.33-1.33,6.39-1.3,11.49-.28,4.32,.86,5.65,1.98,13.53,4.77,9.02,3.2,9.93,2.68,10.27,2.3,1.8-2.02-3.72-9.66-5.41-12Z"/>
    <path class="cls-4" d="M64.23,287.69c-3.23-2.3-7.37-2.33-10.58-.45,0,.36-.02,.71-.03,1.07,1.19,5.35,2.04,11.1,1.64,16.49,4.01,1.45,8.66,.14,11.26-3.51,3.12-4.39,2.1-10.48-2.29-13.6Z"/>
  </g>
  <g id="light_text">
    <path class="cls-5" d="M107.41,589.36c-14.26-.13-24.92-4.33-31.97-12.62-7.05-8.28-9.64-19.58-7.76-33.9l1.53-10.3c2.43-16.18,8.44-28.84,18.04-37.99,9.6-9.15,21.8-13.56,36.61-13.24,12.06,.26,21.13,3.64,27.21,10.16,6.07,6.52,8.95,15.68,8.64,27.49l-1.05,11.47c0,.05-.01,.11-.02,.16l-1.28,7.23c-.26,1.49-2.19,2.61-4.49,2.6l-60.09-.08c-2.31,0-4.26,1.14-4.49,2.64-.71,4.53-1.04,8.18-.97,10.94,.16,6.49,2.12,11.57,5.88,15.26,3.76,3.69,9.13,5.57,16.1,5.63,5.01,.13,9.97-.69,14.87-2.46,3.67-1.32,7.48-3.39,11.44-6.21,2.05-1.46,5.69-1.16,7.2,.56l4.99,5.7c.85,.97,.78,2.18-.18,3.11-4.73,4.6-10.41,8.03-17.04,10.28-7.37,2.5-15.08,3.69-23.15,3.56Zm15.16-93.51c-13.87-.51-23.58,6.36-29.15,20.61l-1.96,5.77c-.62,1.83,1.51,3.57,4.39,3.58l39.29,.08c2.23,0,4.13-1.06,4.47-2.5,.47-2.95,.71-6.03,.71-9.25-.31-11.68-6.23-17.78-17.75-18.3Z"/>
    <path class="cls-5" d="M211.5,484.6c8.82,.21,15.58,3.34,20.29,9.4,.99,1.27,3.55,.95,3.99-.48l1.8-5.76c.23-.74,1.11-1.27,2.13-1.27h11.46c1.32,0,2.34,.88,2.17,1.87l-18.15,101.19c-1.13,8.06-3.65,15.14-7.55,21.25-3.9,6.11-8.94,10.74-15.14,13.89-6.2,3.15-13.26,4.6-21.19,4.35-5.66-.13-11.36-1.43-17.09-3.92-5.3-2.3-9.66-5.18-13.08-8.64-.51-.51-.55-1.21-.14-1.76l5.93-8.13c.75-1.03,2.62-1.14,3.62-.24,5.97,5.4,12.66,8.21,20.07,8.44,7.26,.25,13.24-1.67,17.94-5.76,4.7-4.09,7.81-10.27,9.34-18.51l1.19-5.46c.35-1.62-2.3-2.57-3.77-1.37-5.9,4.81-12.5,7.11-19.81,6.92-9.26-.13-16.31-3.53-21.14-10.2-4.83-6.67-7.18-15.84-7.05-27.49,0-4.97,.63-11.78,1.9-20.4,4.26-27.35,15.39-48.26,42.28-47.89Zm-26.98,72.29c.33,12.52,5.8,18.87,16.39,19.06,7.87,.21,15.78-4.24,21.54-13.05,0,0,9.17-50.53,9.17-50.53-2.6-8.13-9.14-12.66-16.52-12.94-15.99-.57-25.55,10.57-28.68,33.4-1.53,11.01-2.17,19.03-1.9,24.06Z"/>
    <path class="cls-5" d="M317.32,588.79c-3.48,.03-2.74-3.41-2.85-5.67,.23-1.69-2.95-2.49-4.57-1.23-7.61,5.95-15.7,8.92-24.25,8.92-10.24,0-18.21-2.71-23.92-8.12-5.71-5.42-8.25-12.58-7.62-21.49,.87-10.77,6.32-19.39,16.36-25.86,10.04-6.47,23.21-9.71,39.51-9.71h11.88c1.31,0,2.41-.64,2.57-1.48l1.74-9.58c1.42-11.47-3.9-17.21-15.95-17.21-10.66-.11-20.02,5.01-23.04,14.83-.23,.77-1.29,1.33-2.51,1.33l-15.16,.07c-1.57,0-2.78-.89-2.59-1.9,1.48-7.94,6.28-14.68,14.42-20.2,8.78-5.96,19.12-8.88,31.01-8.75,11.5,.13,20.34,3,26.52,8.61,6.17,5.6,8.67,13.42,7.51,23.45,0,.1-10.39,51.2-10.4,51.31-.71,3.65-.99,7.15-.83,10.48l.7,10.46c.03,1.05-1.16,1.73-2.58,1.75,0,0-15.94,0-15.94,0Zm-27.43-13.37c10.12-.06,19.7-4.09,26.54-12.56,0,0,4.84-22.68,4.84-22.68,.21-1-.97-1.89-2.52-1.91l-6.41-.07c-8.03,0-15.16,1.2-21.38,3.61-6.22,2.4-10.61,5.74-13.17,10-2.56,4.26-3.45,8.89-2.66,13.89,1.02,6.48,5.95,9.71,14.77,9.71Z"/>
    <path class="cls-5" d="M582.83,559.98c1.02-6.1-3.15-11.17-12.5-15.22l-15.8-6.74c-8.18-3.72-13.89-7.67-17.15-11.85-3.26-4.17-4.7-9.02-4.3-14.54,.63-8.8,5.03-16.08,13.2-21.86,8.17-5.78,18.16-8.6,29.95-8.48,11.4,.26,20.32,3.32,26.76,9.2,6.05,5.52,9.05,12.46,9.01,20.84,0,.92-1.17,1.65-2.58,1.65h-15.06c-1.39,0-2.54-.72-2.57-1.63-.16-4.43-1.57-7.98-4.24-10.65-2.99-2.99-7.15-4.54-12.5-4.67-6.05,0-11.04,1.4-14.97,4.19-3.93,2.79-6.29,6.4-7.07,10.83-.99,5.2,2.3,9.6,9.4,12.84,0,0,19.84,8.25,19.84,8.25,14.7,6.68,21.65,15.54,20.87,26.58-1.85,21.39-24.14,31.26-44.92,30.63-11.71-.13-21.22-3.26-28.53-9.39-6.87-5.77-10.31-13.11-10.3-22.03,0-.94,1.16-1.71,2.6-1.7l15.4,.07c1.39,0,2.53,.74,2.56,1.64,.15,5.24,1.76,9.27,4.83,12.09,6.71,6.69,23.24,5.58,30.59,.63,4.28-2.7,6.78-6.26,7.49-10.69Z"/>
    <path class="cls-5" d="M491.79,584.12c.37-1.63-2.47-2.64-4.16-1.47-6.74,4.67-14.58,6.91-23.53,6.7-8.61-.13-15.22-2.87-19.83-8.23-4.6-5.35-6.91-12.83-6.91-22.44l.56-8.84c-.08-.01,12.9-67.02,12.86-67.08,.16-.85,1.2-1.48,2.44-1.48h14.25c1.48,0,2.63,.91,2.44,1.93-.02,.15-12.67,66.86-12.67,67,0,0-.44,7.08-.44,7.08-.3,4.77,.58,8.71,2.64,11.82,2.06,3.11,5.15,4.72,9.27,4.85,10.78,.45,20.28-4.33,26.79-14.31,0,0,15.15-76.9,15.15-76.9,.17-.85,1.21-1.48,2.44-1.48h14.47c1.49,0,2.64,.91,2.44,1.94l-20.33,102.59c-.17,.85-1.21,1.48-2.44,1.48h-13.28c-1.51,0-2.67-.94-2.43-1.98l.27-1.2Z"/>
    <path class="cls-5" d="M408.21,559.98c1.02-6.1-3.15-11.17-12.5-15.22l-15.8-6.74c-8.18-3.72-13.89-7.67-17.15-11.85-3.26-4.17-4.7-9.02-4.3-14.54,.63-8.8,5.03-16.08,13.2-21.86,8.17-5.78,18.16-8.6,29.95-8.48,11.4,.26,20.32,3.32,26.76,9.2,6.05,5.52,9.05,12.46,9.01,20.84,0,.92-1.17,1.65-2.58,1.65h-15.06c-1.39,0-4.15-9.61-6.81-12.28-2.99-2.99-7.15-4.54-12.5-4.67-6.05,0-11.04,1.4-14.97,4.19-3.93,2.79-6.29,6.4-7.07,10.83-.99,5.2,2.3,9.6,9.4,12.84,0,0,19.84,8.25,19.84,8.25,14.7,6.68,21.65,15.54,20.87,26.58-1.85,21.39-24.14,31.26-44.92,30.63-11.71-.13-21.22-3.26-28.53-9.39-6.87-5.77-10.31-13.11-10.3-22.03,0-.94,1.16-1.71,2.6-1.7l15.4,.07c1.39,0,2.53,.74,2.56,1.64,.15,5.24,1.76,9.27,4.83,12.09,6.71,6.69,23.24,5.58,30.59,.63,4.28-2.7,6.78-6.26,7.49-10.69Z"/>
    <path class="cls-2" d="M523.08,488.22c-1.44,15-4.28,30.41-7.2,45.21-3.11,14.77-6.54,30.04-11.12,44.41,1.43-15.01,4.27-30.42,7.2-45.21,3.12-14.77,6.55-30.04,11.12-44.41h0Z"/>
    <path class="cls-2" d="M526.67,561.91c5.15,12.94,16.84,21.8,31.01,21.04,12.28-.91,26.52-4.03,33.48-15.13,1.56-3.03,2.28-6.6,2.52-10.02,.7-10.28-5.93-18.07-14.76-22.46,3.15,1.02,6.19,2.49,8.91,4.53,9.02,6.4,10.78,18.85,7.15,28.2-2.87,6.98-9.56,11.66-16.27,14.48-5.01,2-10.28,3.18-15.61,3.7-5.34,.63-10.92,.37-16.08-1.34-10.29-3.29-18.03-12.6-20.33-23h0Z"/>
    <path class="cls-2" d="M313.56,529.64c-9.64,.33-19.21,2.23-27.97,6.21-8.59,3.93-16.01,10.2-20.53,18.36-2.34,4.03-4.18,8.39-4.17,12.74-.01,9.78,9.96,14.84,18.29,17.36,4,1.17,8.2,2.15,12.4,2.16,.74-.06,1.3-.17,.3-.66,.26,.11,.86,.21,.64,.6-.81,.55-1.81,.49-2.74,.62-3.71,.23-7.41-.13-11.07-.81-7.25-1.47-15.34-4.56-19.39-11.39-4.31-7.14-1.62-15.97,2.27-22.6,10.01-17.96,32.41-25.33,51.97-22.58h0Z"/>
    <path class="cls-2" d="M166.21,613.21c9.08,5.13,19.6,9.05,30.06,8.25,11.64-1.32,19.85-11.76,25.43-20.76,5.59-11.16,8.06-23.57,10.57-35.73,4.27-20.93,9.09-46.89,13.61-67.68-1.85,18.35-4.41,36.61-7.43,54.8-2.81,15.93-5.2,32.28-11.79,47.23-1.15,2.35-2.16,4.82-4.16,6.64,0,0,.51-.57,.51-.57-3.07,4.76-6.69,8.88-11.1,12.38-4.45,3.42-9.77,6.01-15.48,6.25-11.07,.22-21.49-4.48-30.23-10.82h0Z"/>
    <path class="cls-2" d="M73.36,550.78c2.29,14.15,8.94,27.35,23.69,31.02,4.47,1.26,9.25,1.73,14.15,2.02-4.72,1.37-9.77,1.78-14.8,1.06-16.49-2.13-25.61-18.57-23.04-34.1h0Z"/>
    <path class="cls-2" d="M111.2,487.86c16.95-6.83,39.91,.17,40.3,21.01-.91-1.98-1.69-3.94-2.78-5.72-7.14-13.54-23.6-15.5-37.51-15.29h0Z"/>
    <path class="cls-2" d="M429.33,500.97c-2.97-13.41-28.78-11.74-39.11-9.58-9.24,2.12-18.29,7.89-20.3,17.7,0,0-.09,.45-.09,.45-.12,.21-.2,.4-.32,.72-1,2.68-.39,5.76,.89,8.25,.72,1.25,1.51,2.28,2.44,3.36,2.93,3.16,6.84,5.57,10.58,7.66-3.43-1.11-6.76-2.54-9.78-4.55-.83-.65-2.16-1.56-2.86-2.34-3.87-3.42-6.09-9.42-3.96-14.45,0,0-.17,.59-.17,.59,.18-1.88,.69-3.39,1.32-5.09,1.93-4.76,5.49-8.77,9.81-11.5,2.81-1.79,5.97-3.15,9.19-3.97,0,0,2.4-.64,2.4-.64l2.43-.41c10.84-1.84,36.6-.88,37.52,13.79h0Z"/>
    <path class="cls-2" d="M23.98,457.94c-.96,19.93-3.32,40.57-5.79,60.41-2.65,19.82-5.6,40.36-9.75,59.89,.95-19.93,3.32-40.57,5.79-60.41,2.66-19.82,5.61-40.36,9.75-59.89h0Z"/>
    <path class="cls-2" d="M85.32,457.94c13.33-1.11,26.63-1.54,39.97-1.82,15.55-1.49,31.23-6.31,43.76-15.86,7.69-5.9,13.67-13.76,17.45-22.75-1.11,4.81-3.06,9.45-5.69,13.72-11.55,18.45-33.89,27.17-54.87,28.49-13.56-.14-27.1-.69-40.62-1.78h0Z"/>
  </g>
</svg>